<svg
    width="64"
    height="15"
    viewBox="0 0 64 15"
    fill="none"
    xmlns="http://www.w3.org/2000/svg"
>
    <path
    d="M0.8725 14V5.79H3.4025V14H0.8725ZM2.1725 3.67C1.7525 3.67 1.39583 3.52333 1.1025 3.23C0.815833 2.93667 0.6725 2.58667 0.6725 2.18C0.6725 1.77333 0.819167 1.42 1.1125 1.12C1.40583 0.819999 1.75917 0.669999 2.1725 0.669999C2.44583 0.669999 2.69583 0.739999 2.9225 0.88C3.14917 1.01333 3.3325 1.19333 3.4725 1.42C3.6125 1.64667 3.6825 1.9 3.6825 2.18C3.6825 2.58667 3.5325 2.93667 3.2325 3.23C2.93917 3.52333 2.58583 3.67 2.1725 3.67ZM18.973 0.799999V14H16.483V5.55L16.603 3.63L16.153 5.81L13.563 13.06H11.103L8.52297 5.81L8.08297 3.63L8.19297 5.55V14H5.69297V0.799999H9.15297L12.173 10.21L12.333 11.11L12.493 10.21L15.523 0.799999H18.973ZM34.7542 0.799999V14H32.2642V5.55L32.3842 3.63L31.9342 5.81L29.3442 13.06H26.8842L24.3042 5.81L23.8642 3.63L23.9742 5.55V14H21.4742V0.799999H24.9342L27.9542 10.21L28.1142 11.11L28.2742 10.21L31.3042 0.799999H34.7542ZM43.7355 14V12.57C43.6755 12.7167 43.5221 12.9233 43.2755 13.19C43.0288 13.4567 42.6955 13.7 42.2755 13.92C41.8621 14.1333 41.3755 14.24 40.8155 14.24C40.0288 14.24 39.3321 14.0533 38.7255 13.68C38.1188 13.3 37.6421 12.7833 37.2955 12.13C36.9555 11.47 36.7855 10.7267 36.7855 9.9C36.7855 9.07333 36.9555 8.33333 37.2955 7.68C37.6421 7.02 38.1188 6.5 38.7255 6.12C39.3321 5.74 40.0288 5.55 40.8155 5.55C41.3621 5.55 41.8355 5.64333 42.2355 5.83C42.6421 6.01 42.9688 6.22333 43.2155 6.47C43.4688 6.71 43.6321 6.92667 43.7055 7.12V5.79H46.2255V14H43.7355ZM39.2755 9.9C39.2755 10.36 39.3788 10.7667 39.5855 11.12C39.7921 11.4667 40.0655 11.7367 40.4055 11.93C40.7455 12.1233 41.1155 12.22 41.5155 12.22C41.9355 12.22 42.3088 12.1233 42.6355 11.93C42.9621 11.73 43.2188 11.4567 43.4055 11.11C43.5988 10.7567 43.6955 10.3533 43.6955 9.9C43.6955 9.44667 43.5988 9.04667 43.4055 8.7C43.2188 8.34667 42.9621 8.07 42.6355 7.87C42.3088 7.67 41.9355 7.57 41.5155 7.57C41.1155 7.57 40.7455 7.67 40.4055 7.87C40.0655 8.06333 39.7921 8.33667 39.5855 8.69C39.3788 9.03667 39.2755 9.44 39.2755 9.9ZM47.6106 5.79H49.0906V2.42H51.6106V5.79H53.5506V7.9H51.6106V10.87C51.6106 11.2633 51.674 11.57 51.8006 11.79C51.9273 12.0033 52.1273 12.11 52.4006 12.11C52.6073 12.11 52.7773 12.07 52.9106 11.99C53.044 11.9033 53.124 11.8433 53.1506 11.81L54.0506 13.63C54.0106 13.67 53.8806 13.74 53.6606 13.84C53.4473 13.94 53.1706 14.03 52.8306 14.11C52.4973 14.1967 52.1206 14.24 51.7006 14.24C50.9473 14.24 50.324 14.0233 49.8306 13.59C49.3373 13.15 49.0906 12.47 49.0906 11.55V7.9H47.6106V5.79ZM57.2123 10.46C57.2323 10.8333 57.3323 11.1667 57.5123 11.46C57.6923 11.7533 57.9523 11.9833 58.2923 12.15C58.639 12.3167 59.0523 12.4 59.5323 12.4C59.9657 12.4 60.3457 12.3467 60.6723 12.24C61.0057 12.1333 61.2857 12.0033 61.5123 11.85C61.7457 11.69 61.919 11.5367 62.0323 11.39L63.0823 12.95C62.8957 13.1833 62.6457 13.4 62.3323 13.6C62.0257 13.7933 61.6323 13.9467 61.1523 14.06C60.679 14.18 60.0857 14.24 59.3723 14.24C58.4723 14.24 57.6823 14.0633 57.0023 13.71C56.3223 13.3567 55.7923 12.8467 55.4123 12.18C55.0323 11.5133 54.8423 10.72 54.8423 9.8C54.8423 9 55.0123 8.28 55.3523 7.64C55.6923 6.99333 56.1857 6.48333 56.8323 6.11C57.4857 5.73667 58.269 5.55 59.1823 5.55C60.0423 5.55 60.7857 5.71667 61.4123 6.05C62.0457 6.37667 62.5357 6.85667 62.8823 7.49C63.229 8.12333 63.4023 8.89667 63.4023 9.81C63.4023 9.86333 63.399 9.97333 63.3923 10.14C63.3923 10.3 63.3857 10.4067 63.3723 10.46H57.2123ZM61.0223 8.89C61.0157 8.67667 60.949 8.44667 60.8223 8.2C60.7023 7.95333 60.5123 7.74333 60.2523 7.57C59.9923 7.39667 59.6457 7.31 59.2123 7.31C58.779 7.31 58.4223 7.39333 58.1423 7.56C57.869 7.72667 57.6623 7.93333 57.5223 8.18C57.3823 8.42 57.3023 8.65667 57.2823 8.89H61.0223Z"
    fill="black"
    />
</svg>